<svg width="16" height="16" viewBox="0 0 16 16" fill="none" xmlns="http://www.w3.org/2000/svg">
<path d="M3.50653 14.3934C3.43828 14.8077 3.82152 15.1316 4.15926 14.9468L8.00044 12.8414L11.8407 14.9468C12.1785 15.1316 12.5617 14.8077 12.4935 14.3943L11.7673 9.97998L14.8489 6.84796C15.1377 6.55491 14.9889 6.01922 14.6022 5.96136L10.3165 5.31181L8.40556 1.27358C8.36916 1.19172 8.31173 1.12256 8.23994 1.07413C8.16815 1.02571 8.08495 1 8.00001 1C7.91506 1 7.83187 1.02571 7.76008 1.07413C7.68829 1.12256 7.63086 1.19172 7.59445 1.27358L5.68349 5.31274L1.39781 5.96229C1.01195 6.02015 0.862324 6.55584 1.15019 6.84889L4.23276 9.98092L3.50653 14.3952V14.3934ZM7.79832 11.811L4.57313 13.5786L5.18037 9.88572C5.1946 9.80072 5.18903 9.71328 5.16416 9.6311C5.13929 9.54893 5.09588 9.47452 5.03775 9.41443L2.49504 6.82929L6.04048 6.29173C6.1139 6.27991 6.18353 6.24928 6.24342 6.20247C6.30331 6.15566 6.35166 6.09406 6.38435 6.02295L7.99869 2.60908L9.61479 6.02295C9.64747 6.09406 9.69583 6.15566 9.75572 6.20247C9.81561 6.24928 9.88524 6.27991 9.95866 6.29173L13.5041 6.82836L10.9614 9.41349C10.9031 9.47368 10.8596 9.54824 10.8348 9.6306C10.8099 9.71295 10.8044 9.80057 10.8188 9.88572L11.426 13.5786L8.20082 11.811C8.13845 11.7767 8.0693 11.7589 7.99913 11.7589C7.92896 11.7589 7.86069 11.7767 7.79832 11.811Z" fill="#9CA3AF"/>
</svg>
